# xmcd
# 
# Track frame offsets:
#     150
#     21906
#     41850
#     60217
#     84615
#     105521
#     120897
#     133350
#     145722
#     160642
#     183892
# 
# Disc length: 2733
# 
# Revision: 0
# Processed by: cddbd v1.5.2PL0 Copyright (c) Steve Scherf et al.
# Submitted via: fre:ac v1.0.31
# 
DISCID=860aab0b
DTITLE=ユニコーン - UC100W
DYEAR=2019
DGENRE=Rock
TTITLE0=1. M&W
TTITLE1=2. チラーRhythm
TTITLE2=3. That's Life
TTITLE3=4. TYT
TTITLE4=5. 4EAE
TTITLE5=6. BLUES
TTITLE6=7. GoodTimeバレンタイン
TTITLE7=8. 7th Ave.
TTITLE8=9. Lake Placid Blue
TTITLE9=10. D-D-D-, Z-Z-Z-
TTITLE10=11. DENDEN[Album Version]
EXTD=
EXTT0=
EXTT1=
EXTT2=
EXTT3=
EXTT4=
EXTT5=
EXTT6=
EXTT7=
EXTT8=
EXTT9=
EXTT10=
PLAYORDER=
